<svg fill="none" xmlns="http://www.w3.org/2000/svg" viewBox="0 0 20 14"><path d="M0 0h20v4.375H0V0z" fill="#F93"/><path d="M0 4.375h20v5H0v-5z" fill="#fff"/><path d="M0 9.375h20v4.375H0V9.375z" fill="#128807"/><path fill-rule="evenodd" clip-rule="evenodd" d="M10 8.9a2 2 0 100-4 2 2 0 000 4z" fill="#fff" stroke="#008" stroke-width=".5"/><path fill-rule="evenodd" clip-rule="evenodd" d="M10 8a1 1 0 100-2 1 1 0 000 2z" fill="#008"/><path d="M1 .25h18v-.5H1v.5zM19.75 1v12h.5V1h-.5zM19 13.75H1v.5h18v-.5zM.25 13V1h-.5v12h.5zm.75.75A.75.75 0 01.25 13h-.5c0 .69.56 1.25 1.25 1.25v-.5zM19.75 13a.75.75 0 01-.75.75v.5c.69 0 1.25-.56 1.25-1.25h-.5zM19 .25a.75.75 0 01.75.75h.5c0-.69-.56-1.25-1.25-1.25v.5zM1-.25C.31-.25-.25.31-.25 1h.5A.75.75 0 011 .25v-.5z" fill="#94949E"/></svg>