<svg xmlns="http://www.w3.org/2000/svg" fill="none" viewBox="0 0 48 48"><path fill="#337197" d="M8 12a3 3 0 0 1 3-3h26a3 3 0 0 1 3 3v10a3 3 0 0 1-3 3H11a3 3 0 0 1-3-3V12Z"/><path fill="#fff" d="M12 18a2 2 0 0 1 2-2h7a2 2 0 0 1 2 2v3a2 2 0 0 1-2 2h-7a2 2 0 0 1-2-2v-3ZM25 18a2 2 0 0 1 2-2h7a2 2 0 0 1 2 2v3a2 2 0 0 1-2 2h-7a2 2 0 0 1-2-2v-3Z"/><path fill="#94B6CC" d="m6.501 22.03-1.523 2.063A5 5 0 0 0 4 27.063V33h40v-5.937a5 5 0 0 0-.978-2.97L41.5 22.03A5 5 0 0 0 37.477 20H10.523a5 5 0 0 0-4.022 2.03Z"/><path fill="#337197" d="M4 28h40v8H4v-8Z"/><path fill="#191E3B" d="M44 34H4v6a1 1 0 0 0 1 1h1.22a1 1 0 0 0 .97-.758l.431-1.727A2 2 0 0 1 9.561 37h28.877a2 2 0 0 1 1.94 1.515l.433 1.727a1 1 0 0 0 .97.758H43a1 1 0 0 0 1-1v-6Z"/></svg>