<svg xmlns="http://www.w3.org/2000/svg" fill="none" viewBox="0 0 48 48"><path fill="#337197" d="M19 44 4 29l.626-.626a2 2 0 0 1 2.047-.483L16 31l1 1 3.11 9.327a2 2 0 0 1-.484 2.047L19 44Z"/><path fill="#337197" d="M10.986 35.986 19.001 44l.625-.626a2 2 0 0 0 .484-2.047l-2.383-7.147-6.74 1.806Z"/><path fill="#94B6CC" d="M34.139 7.861 18.817 23.183a42 42 0 0 0-7.865 10.91l-.62 1.24 2.333 2.333 1.238-.618a41.998 41.998 0 0 0 10.914-7.867l15.322-15.32a9.768 9.768 0 0 0 2.86-6.907A1.954 1.954 0 0 0 41.047 5a9.769 9.769 0 0 0-6.907 2.861Z"/><path fill="#FDDB32" d="M22.738 12.475a1 1 0 0 0 0-1.414L20.617 8.94a1 1 0 0 0-1.414 0l-5.657 5.656a1 1 0 0 0 0 1.415l2.121 2.12a1 1 0 0 0 1.414 0l5.657-5.656ZM39.002 28.739a1 1 0 0 0 0-1.415l-2.121-2.121a1 1 0 0 0-1.415 0L29.81 30.86a1 1 0 0 0 0 1.414l2.122 2.121a1 1 0 0 0 1.414 0l5.657-5.656Z"/><path fill="#337197" d="M37.69 41.34a3 3 0 0 0 .759-3.041L33 21l-7.5 7.5L36 43l1.69-1.66ZM6.712 10.288a3 3 0 0 1 3.025-.74L27 15l-7.5 7.5L5 12l1.712-1.712Z"/><path fill="#191E3B" d="m34.597 26.07-6.296 6.297L25.5 28.5 33 21l1.597 5.07ZM38.664 11.665c.457.457 1.234.35 1.313-.292a3 3 0 0 0-3.35-3.35c-.641.08-.748.856-.29 1.313l2.327 2.329Z"/></svg>