<svg xmlns="http://www.w3.org/2000/svg" fill="none" viewBox="0 0 48 48"><path fill="#191E3B" d="M26 40.581c0-.32-.26-.581-.581-.581h-1.838c-.32 0-.581.26-.581.581v2.838c0 .32.26.581.581.581h1.838c.32 0 .581-.26.581-.581v-2.838ZM43 40.581c0-.32-.26-.581-.581-.581h-1.838c-.32 0-.581.26-.581.581v2.838c0 .32.26.581.581.581h1.838c.32 0 .581-.26.581-.581v-2.838Z"/><path fill="#94B6CC" d="M43 34.886V41H23v-6.114c0-1.103.236-2.193.692-3.197l1.998-4.404a3.316 3.316 0 0 1 2.765-1.935l1.155-.09a44.208 44.208 0 0 1 6.78 0l1.155.09a3.316 3.316 0 0 1 2.765 1.935l1.998 4.404A7.737 7.737 0 0 1 43 34.886Z"/><path fill="#94B6CC" d="M25 30h-2.917a1.083 1.083 0 0 0-.178 2.15L24 32.5l1-2.5ZM41 30h2.917a1.083 1.083 0 0 1 .178 2.15L42 32.5 41 30Z"/><path fill="#fff" d="M43 38h-3.438a.562.562 0 0 1-.562-.563v-.819c0-.248.163-.467.4-.538L43 35v3ZM23 38h3.438c.31 0 .562-.252.562-.563v-.819a.562.562 0 0 0-.4-.538L23 35v3Z"/><path fill="#191E3B" d="M42.577 32.362a72.992 72.992 0 0 1-19.154 0 7.73 7.73 0 0 1 .269-.673L25.366 28h15.269l1.674 3.689c.1.22.19.445.268.673Z"/><path fill="#191E3B" fill-rule="evenodd" d="M12.5 20.5v7h-3v-7h3Zm.136-1.5c.754 0 1.364.61 1.364 1.364v7.272C14 28.39 13.39 29 12.636 29H9.364C8.61 29 8 28.39 8 27.636v-7.272C8 19.61 8.61 19 9.364 19h3.272Z" clip-rule="evenodd"/><path fill="#191E3B" d="M14 20.364C14 19.61 13.39 19 12.636 19H9.364C8.61 19 8 19.61 8 20.364V21h6v-.636Z"/><path fill="#337197" d="M4 27.125C4 25.952 4.952 25 6.125 25h9.75c1.173 0 2.125.952 2.125 2.125v11.75A2.125 2.125 0 0 1 15.875 41h-9.75A2.125 2.125 0 0 1 4 38.875v-11.75Z"/><path fill="#FDDB32" d="M8.81 29.59a.682.682 0 0 1 .932-.25l4.015 2.32a.682.682 0 0 1 .25.93l-.818 1.418a.682.682 0 0 1-.931.25l-4.016-2.319a.682.682 0 0 1-.25-.931l.819-1.418Z"/><path fill="#191E3B" d="M14 41h1.5a1.5 1.5 0 1 1-1.5 1.5V41ZM6 41h1.5A1.5 1.5 0 1 1 6 42.5V41Z"/><path fill="#337197" d="M23.733 3.985 31 12h-7.68L19 3h2.51a3 3 0 0 1 2.223.985Z"/><path fill="#191E3B" d="M29 18a1 1 0 0 0-1-1h-4v3h4a1 1 0 0 0 1-1v-1Z"/><path fill="#94B6CC" d="M12.045 10c-.995 0-1.953-.37-2.69-1.04L5.859 5.78A3 3 0 0 0 3.84 5H2.5L6 14l8.875 2.663a8 8 0 0 0 2.3.337H40.5c2.485 0 4.5-2.007 4.5-3.25 0-.796-1.342-1.798-2.927-2.958A4.07 4.07 0 0 0 39.67 10H12.045Z"/><path fill="#337197" d="M44.975 14H6l8.875 2.663a8 8 0 0 0 2.3.337H40.5c2.325 0 4.237-1.756 4.475-3Z"/><path fill="#94B6CC" d="M22.888 22.06 30.5 14h-8L18 23h2.707a3 3 0 0 0 2.18-.94Z"/></svg>