<svg xmlns="http://www.w3.org/2000/svg" fill="none" viewBox="0 0 48 48"><path fill="#94B6CC" d="M5 25.337V34h38v-8.663a14 14 0 0 0-1.956-7.138l-4.48-7.56a6 6 0 0 0-4.619-2.917l-.702-.064a80 80 0 0 0-14.486 0l-.702.064a6 6 0 0 0-4.619 2.917l-4.48 7.56A14 14 0 0 0 5 25.337Z"/><path fill="#191E3B" d="M5 35a1 1 0 0 1 1-1h4a1 1 0 0 1 1 1v5a1 1 0 0 1-1 1H6a1 1 0 0 1-1-1v-5ZM37 35a1 1 0 0 1 1-1h4a1 1 0 0 1 1 1v5a1 1 0 0 1-1 1h-4a1 1 0 0 1-1-1v-5Z"/><path fill="#94B6CC" d="M40 18.28A2.28 2.28 0 0 1 42.28 16h2.096a1.624 1.624 0 0 1 .267 3.226L40 20v-1.72ZM8 18.28A2.28 2.28 0 0 0 5.72 16H3.624a1.624 1.624 0 0 0-.267 3.226L8 20v-1.72Z"/><path fill="#fff" d="M5 28h7a1 1 0 0 0 1-1v-1.22a1 1 0 0 0-.758-.97l-7.054-1.763C5.064 23.8 5 24.567 5 25.337V28ZM42.812 23.047l-7.054 1.763a1 1 0 0 0-.758.97V27a1 1 0 0 0 1 1h7v-2.664c0-.77-.063-1.535-.188-2.29Z"/><path fill="#191E3B" d="M6.184 19.702a120.219 120.219 0 0 0 35.63-.003 13.99 13.99 0 0 0-.77-1.5L36.778 11H11.222l-4.266 7.2c-.289.486-.546.988-.772 1.502Z"/><path fill="#337197" d="M5 34h38v3H5v-3ZM10 34l1.17-2.342A3 3 0 0 1 13.855 30h20.292a3 3 0 0 1 2.683 1.658L38 34H10Z"/><path fill="#FDDB32" d="M20 33a1 1 0 0 1 1-1h6a1 1 0 0 1 1 1v1a1 1 0 0 1-1 1h-6a1 1 0 0 1-1-1v-1Z"/></svg>