<svg xmlns="http://www.w3.org/2000/svg" viewBox="0 0 24 24"><g fill="#fff" clip-path="url(#a)"><path d="M11.276 5.98 9.35 4.053a.975.975 0 0 1 0-1.338L11.276.787c.354-.393.945-.393 1.338 0l1.928 1.928a.975.975 0 0 1 0 1.338L12.614 5.98c-.393.355-.984.355-1.338 0ZM11.276 23.174 9.35 21.246a.975.975 0 0 1 0-1.338l1.927-1.928a.975.975 0 0 1 1.338 0l1.928 1.928a.975.975 0 0 1 0 1.338l-1.928 1.928c-.393.354-.984.354-1.338 0ZM17.925 11.292l1.928-1.928a.975.975 0 0 1 1.338 0l1.928 1.928a.975.975 0 0 1 0 1.338l-1.928 1.927a.975.975 0 0 1-1.338 0l-1.928-1.928c-.354-.354-.354-.944 0-1.337ZM.732 11.292 2.66 9.364a.975.975 0 0 1 1.337 0l1.928 1.928a.975.975 0 0 1 0 1.338l-1.928 1.927c-.354.394-.944.394-1.337 0L.732 12.63c-.354-.354-.354-.944 0-1.337ZM16.666 15.738h2.715c.512 0 .945.433.945.944v2.715a.957.957 0 0 1-.945.944h-2.715a.957.957 0 0 1-.944-.944v-2.715c-.04-.511.394-.944.944-.944ZM4.51 3.58h2.714c.511 0 .944.433.944.945v2.714a.957.957 0 0 1-.944.945H4.509a.957.957 0 0 1-.944-.945V4.525c-.04-.512.393-.945.944-.945ZM8.168 16.682v2.715a.957.957 0 0 1-.944.944H4.509a.957.957 0 0 1-.944-.944v-2.715c0-.511.433-.944.944-.944h2.715c.511 0 .944.433.944.944ZM20.325 4.525v2.714a.957.957 0 0 1-.944.945h-2.715a.957.957 0 0 1-.944-.945V4.525c0-.512.433-.945.944-.945h2.715c.512 0 .944.433.944.945Z"/></g><defs><clipPath id="a"><path fill="#fff" d="M.142 0h23.567v24H.142z"/></clipPath></defs></svg>